# Blender v2.79 (sub 0) OBJ File: 'KUS2.blend'
# www.blender.org
mtllib KUS.mtl
o Cylinder
v 0.000000 2.136336 -0.124866
v 0.000000 2.136336 0.124866
v 0.195090 2.117121 -0.124866
v 0.195090 2.117121 0.124866
v 0.382683 2.060215 -0.124866
v 0.382683 2.060215 0.124866
v 0.555570 1.967805 -0.124866
v 0.555570 1.967805 0.124866
v 0.707107 1.843442 -0.124866
v 0.707107 1.843442 0.124866
v 0.831470 1.691906 -0.124866
v 0.831470 1.691906 0.124866
v 0.923880 1.519019 -0.124866
v 0.923880 1.519019 0.124866
v 0.980785 1.331426 -0.124866
v 0.980785 1.331426 0.124866
v 1.000000 1.136336 -0.124866
v 1.000000 1.136336 0.124866
v 0.980785 0.941245 -0.124866
v 0.980785 0.941245 0.124866
v 0.923880 0.753652 -0.124866
v 0.923880 0.753652 0.124866
v 0.831470 0.580765 -0.124866
v 0.831470 0.580765 0.124866
v 0.707107 0.429229 -0.124866
v 0.707107 0.429229 0.124866
v 0.555570 0.304866 -0.124866
v 0.555570 0.304866 0.124866
v 0.382683 0.212456 -0.124866
v 0.382683 0.212456 0.124866
v 0.195090 0.155550 -0.124866
v 0.195090 0.155550 0.124866
v -0.000000 0.136336 -0.124866
v -0.000000 0.136336 0.124866
v -0.195091 0.155550 -0.124866
v -0.195091 0.155550 0.124866
v -0.382684 0.212456 -0.124866
v -0.382684 0.212456 0.124866
v -0.555571 0.304866 -0.124866
v -0.555571 0.304866 0.124866
v -0.707107 0.429229 -0.124866
v -0.707107 0.429229 0.124866
v -0.831470 0.580766 -0.124866
v -0.831470 0.580766 0.124866
v -0.923880 0.753653 -0.124866
v -0.923880 0.753653 0.124866
v -0.980785 0.941246 -0.124866
v -0.980785 0.941246 0.124866
v -1.000000 1.136337 -0.124866
v -1.000000 1.136337 0.124866
v -0.980785 1.331427 -0.124866
v -0.980785 1.331427 0.124866
v -0.923879 1.519020 -0.124866
v -0.923879 1.519020 0.124866
v -0.831469 1.691907 -0.124866
v -0.831469 1.691907 0.124866
v -0.707106 1.843443 -0.124866
v -0.707106 1.843443 0.124866
v -0.555569 1.967806 -0.124866
v -0.555569 1.967806 0.124866
v -0.382682 2.060216 -0.124866
v -0.382682 2.060216 0.124866
v -0.195089 2.117121 -0.124866
v -0.195089 2.117121 0.124866
v 0.195090 -0.112969 0.124866
v 0.195090 -0.112969 -0.124866
v -0.000000 -0.132184 -0.124866
v -0.000000 -0.132184 0.124866
v -0.195091 -0.112969 -0.124866
v -0.195091 -0.112969 0.124866
v 0.195090 -0.112969 0.124866
v 0.195090 -0.112969 -0.124866
v -0.000000 -0.132184 -0.124866
v -0.000000 -0.132184 0.124866
v -0.195091 -0.112969 -0.124866
v -0.195091 -0.112969 0.124866
v 0.603570 0.155550 0.124866
v 0.603570 0.155550 -0.124866
v 0.603569 -0.112970 0.124866
v 0.603569 -0.112970 -0.124866
v 0.603570 0.155550 0.124866
v 0.603570 0.155550 -0.124866
v 0.603569 -0.112970 0.124866
v 0.603569 -0.112970 -0.124866
v -0.590160 0.155551 -0.124866
v -0.590160 -0.112969 -0.124866
v -0.590160 0.155551 0.124866
v -0.590160 -0.112969 0.124866
v -0.590160 0.155551 -0.124866
v -0.590160 -0.112969 -0.124866
v -0.590160 0.155551 0.124866
v -0.590160 -0.112969 0.124866
vt 0.592004 0.531322
vt 0.592004 1.000000
vt 0.559337 1.000000
vt 0.559337 0.531322
vt 0.527926 1.000000
vt 0.527926 0.531322
vt 0.498977 1.000000
vt 0.498977 0.531322
vt 0.473603 1.000000
vt 0.473603 0.531322
vt 0.236802 1.000000
vt 0.236802 0.531322
vt 0.262176 0.531322
vt 0.262176 1.000000
vt 0.291124 0.531322
vt 0.291125 1.000000
vt 0.322536 0.531322
vt 0.322536 1.000000
vt 0.355202 0.531322
vt 0.355203 1.000000
vt 0.387869 0.531322
vt 0.387869 1.000000
vt 0.419280 0.531322
vt 0.419281 1.000000
vt 0.448229 0.531322
vt 0.448229 1.000000
vt 0.473603 0.531322
vt 0.473603 1.000000
vt 0.755155 0.000000
vt 0.755155 0.468678
vt 0.729781 0.468678
vt 0.729781 0.000000
vt 0.700832 0.468678
vt 0.700832 0.000000
vt 0.669421 0.468678
vt 0.669421 0.000000
vt 0.140050 0.465417
vt 0.172804 0.468430
vt 0.174267 0.531321
vt 0.141513 0.528309
vt 0.930688 0.531322
vt 0.930688 1.000000
vt 0.864536 1.000000
vt 0.864536 0.531322
vt 0.710405 1.000000
vt 0.710405 0.531322
vt 0.741816 0.531322
vt 0.741816 1.000000
vt 0.770765 0.531322
vt 0.770765 1.000000
vt 0.796139 0.531322
vt 0.796139 1.000000
vt 0.000000 1.000000
vt 0.000000 0.531322
vt 0.025374 0.531322
vt 0.025374 1.000000
vt 0.054323 0.531322
vt 0.054323 1.000000
vt 0.085734 0.531322
vt 0.085734 1.000000
vt 0.118401 0.531322
vt 0.118401 1.000000
vt 0.151067 0.531322
vt 0.151068 1.000000
vt 0.182479 0.531322
vt 0.182479 1.000000
vt 0.211428 0.531322
vt 0.211428 1.000000
vt 0.236802 0.531322
vt 0.236802 1.000000
vt 0.710405 0.531322
vt 0.710405 1.000000
vt 0.685031 1.000000
vt 0.685031 0.531322
vt 0.656082 1.000000
vt 0.656082 0.531322
vt 0.474761 0.003013
vt 0.507515 0.000000
vt 0.540059 0.005988
vt 0.571144 0.020747
vt 0.599574 0.043709
vt 0.624257 0.073992
vt 0.644244 0.110432
vt 0.658767 0.151630
vt 0.667268 0.196001
vt 0.669421 0.241841
vt 0.665142 0.287387
vt 0.654597 0.330890
vt 0.638189 0.370678
vt 0.616551 0.405222
vt 0.590513 0.433194
vt 0.561076 0.453520
vt 0.529371 0.465417
vt 0.496617 0.468430
vt 0.464072 0.462442
vt 0.432988 0.447683
vt 0.404558 0.424721
vt 0.379875 0.394438
vt 0.359888 0.357997
vt 0.345364 0.316800
vt 0.336863 0.272429
vt 0.334711 0.226589
vt 0.338989 0.181043
vt 0.349535 0.137540
vt 0.365942 0.097752
vt 0.387581 0.063208
vt 0.413619 0.035236
vt 0.443056 0.014910
vt 0.624671 1.000000
vt 0.624671 0.531322
vt 0.161906 0.000000
vt 0.194660 0.003013
vt 0.226365 0.014910
vt 0.255802 0.035236
vt 0.281840 0.063208
vt 0.303479 0.097752
vt 0.319886 0.137540
vt 0.330432 0.181043
vt 0.334711 0.226589
vt 0.332558 0.272429
vt 0.324057 0.316800
vt 0.309533 0.357997
vt 0.289546 0.394438
vt 0.264863 0.424721
vt 0.236433 0.447683
vt 0.205349 0.462442
vt 0.108345 0.453520
vt 0.078908 0.433194
vt 0.052870 0.405222
vt 0.031232 0.370678
vt 0.014824 0.330890
vt 0.004279 0.287387
vt 0.000000 0.241841
vt 0.002153 0.196001
vt 0.010654 0.151630
vt 0.025177 0.110432
vt 0.045164 0.073992
vt 0.069847 0.043709
vt 0.098277 0.020747
vt 0.129362 0.005988
vt 0.000000 0.000000
vt 0.000000 0.000000
vt 0.000000 0.000000
vt 0.000000 0.000000
vt 0.000000 0.000000
vt 0.000000 0.000000
vt 0.495154 0.531322
vt 0.462609 0.525333
vt 0.394248 0.522219
vt 0.395711 0.459327
vt 0.527908 0.528309
vt 0.206812 0.525333
vt 0.889705 0.468678
vt 0.889705 0.000000
vt 0.922371 0.000000
vt 0.922371 0.468678
vt 0.955038 0.000000
vt 0.955038 0.468678
vt 0.000000 0.000000
vt 0.000000 0.000000
vt 0.000000 0.000000
vt 0.000000 0.000000
vt 0.000000 0.000000
vt 0.000000 0.000000
vt 0.000000 0.000000
vt 0.000000 0.000000
vt 0.000000 0.000000
vt 0.000000 0.000000
vt 0.864536 0.531322
vt 0.864536 1.000000
vt 0.796139 1.000000
vt 0.796139 0.531322
vt 0.823553 0.000000
vt 0.823553 0.468678
vt 0.755155 0.468678
vt 0.755155 0.000000
vt 0.273710 0.459327
vt 0.275173 0.522218
vt 1.000000 0.000000
vt 1.000000 0.468678
vt 0.955038 0.468678
vt 0.955038 0.000000
vt 0.000000 0.000000
vt 0.000000 0.000000
vt 0.000000 0.000000
vt 0.000000 0.000000
vt 0.000000 0.000000
vt 0.000000 0.000000
vt 0.000000 0.000000
vt 0.000000 0.000000
vt 0.823553 0.468678
vt 0.823553 0.000000
vt 0.889705 0.000000
vt 0.889705 0.468678
vt 0.075396 0.531321
vt 0.073933 0.468430
vt 0.595488 0.468430
vt 0.594025 0.531321
vt 0.975650 0.531322
vt 0.975650 1.000000
vt 0.930688 1.000000
vt 0.930688 0.531322
vt 0.000000 0.000000
vt 0.000000 0.000000
vt 0.000000 0.000000
vt 0.000000 0.000000
vn 0.0980 0.9952 0.0000
vn 0.2903 0.9569 0.0000
vn 0.4714 0.8819 0.0000
vn 0.6344 0.7730 0.0000
vn 0.7730 0.6344 0.0000
vn 0.8819 0.4714 0.0000
vn 0.9569 0.2903 0.0000
vn 0.9952 0.0980 0.0000
vn 0.9952 -0.0980 0.0000
vn 0.9569 -0.2903 0.0000
vn 0.8819 -0.4714 0.0000
vn 0.7730 -0.6344 0.0000
vn 0.6344 -0.7730 0.0000
vn 0.4714 -0.8819 0.0000
vn 0.2903 -0.9569 0.0000
vn 0.0000 0.0000 -1.0000
vn 0.0000 1.0000 0.0000
vn -0.2903 -0.9569 0.0000
vn -0.4714 -0.8819 0.0000
vn -0.6344 -0.7730 0.0000
vn -0.7730 -0.6344 0.0000
vn -0.8819 -0.4714 0.0000
vn -0.9569 -0.2903 0.0000
vn -0.9952 -0.0980 0.0000
vn -0.9952 0.0980 0.0000
vn -0.9569 0.2903 0.0000
vn -0.8819 0.4714 0.0000
vn -0.7730 0.6344 0.0000
vn -0.6344 0.7730 0.0000
vn -0.4714 0.8819 0.0000
vn 0.0000 -0.0000 1.0000
vn -0.2903 0.9569 0.0000
vn -0.0980 0.9952 0.0000
vn 0.0980 -0.9952 0.0000
vn -0.0980 -0.9952 0.0000
vn -0.0000 -1.0000 -0.0000
vn 1.0000 -0.0000 -0.0000
vn -1.0000 0.0000 0.0000
usemtl Material
s off
f 1/1/1 2/2/1 4/3/1 3/4/1
f 3/4/2 4/3/2 6/5/2 5/6/2
f 5/6/3 6/5/3 8/7/3 7/8/3
f 7/8/4 8/7/4 10/9/4 9/10/4
f 9/11/5 10/12/5 12/13/5 11/14/5
f 11/14/6 12/13/6 14/15/6 13/16/6
f 13/16/7 14/15/7 16/17/7 15/18/7
f 15/18/8 16/17/8 18/19/8 17/20/8
f 17/20/9 18/19/9 20/21/9 19/22/9
f 19/22/10 20/21/10 22/23/10 21/24/10
f 21/24/11 22/23/11 24/25/11 23/26/11
f 23/26/12 24/25/12 26/27/12 25/28/12
f 25/29/13 26/30/13 28/31/13 27/32/13
f 27/32/14 28/31/14 30/33/14 29/34/14
f 29/34/15 30/33/15 32/35/15 31/36/15
f 35/37/16 33/38/16 67/39/16 69/40/16
f 36/41/17 35/42/17 85/43/17 87/44/17
f 35/45/18 36/46/18 38/47/18 37/48/18
f 37/48/19 38/47/19 40/49/19 39/50/19
f 39/50/20 40/49/20 42/51/20 41/52/20
f 41/53/21 42/54/21 44/55/21 43/56/21
f 43/56/22 44/55/22 46/57/22 45/58/22
f 45/58/23 46/57/23 48/59/23 47/60/23
f 47/60/24 48/59/24 50/61/24 49/62/24
f 49/62/25 50/61/25 52/63/25 51/64/25
f 51/64/26 52/63/26 54/65/26 53/66/26
f 53/66/27 54/65/27 56/67/27 55/68/27
f 55/68/28 56/67/28 58/69/28 57/70/28
f 57/71/29 58/72/29 60/73/29 59/74/29
f 59/74/30 60/73/30 62/75/30 61/76/30
f 4/77/31 2/78/31 64/79/31 62/80/31 60/81/31 58/82/31 56/83/31 54/84/31 52/85/31 50/86/31 48/87/31 46/88/31 44/89/31 42/90/31 40/91/31 38/92/31 36/93/31 34/94/31 32/95/31 30/96/31 28/97/31 26/98/31 24/99/31 22/100/31 20/101/31 18/102/31 16/103/31 14/104/31 12/105/31 10/106/31 8/107/31 6/108/31
f 61/76/32 62/75/32 64/109/32 63/110/32
f 63/110/33 64/109/33 2/2/33 1/1/33
f 1/111/16 3/112/16 5/113/16 7/114/16 9/115/16 11/116/16 13/117/16 15/118/16 17/119/16 19/120/16 21/121/16 23/122/16 25/123/16 27/124/16 29/125/16 31/126/16 33/38/16 35/37/16 37/127/16 39/128/16 41/129/16 43/130/16 45/131/16 47/132/16 49/133/16 51/134/16 53/135/16 55/136/16 57/137/16 59/138/16 61/139/16 63/140/16
f 69/141/31 67/142/31 73/143/31 75/144/31
f 70/145/31 69/141/31 75/144/31 76/146/31
f 32/95/31 34/94/31 68/147/31 65/148/31
f 32/95/31 65/148/31 79/149/31 77/150/31
f 34/94/31 36/93/31 70/151/31 68/147/31
f 33/38/16 31/126/16 66/152/16 67/39/16
f 72/153/34 71/154/34 74/155/34 73/156/34
f 73/156/35 74/155/35 76/157/35 75/158/35
f 65/159/31 68/160/31 74/161/31 71/162/31
f 66/163/31 65/159/31 71/162/31 72/164/31
f 68/160/31 70/145/31 76/146/31 74/161/31
f 67/142/31 66/163/31 72/164/31 73/143/31
f 77/165/31 79/166/31 83/167/31 81/168/31
f 31/169/17 32/170/17 77/171/17 78/172/17
f 65/173/36 66/174/36 80/175/36 79/176/36
f 66/152/16 31/126/16 78/177/16 80/178/16
f 82/179/37 81/180/37 83/181/37 84/182/37
f 78/183/31 77/165/31 81/168/31 82/184/31
f 80/185/31 78/183/31 82/184/31 84/186/31
f 79/166/31 80/185/31 84/186/31 83/167/31
f 88/187/31 87/188/31 91/189/31 92/190/31
f 69/191/36 70/192/36 88/193/36 86/194/36
f 35/37/16 69/40/16 86/195/16 85/196/16
f 70/151/31 36/93/31 87/197/31 88/198/31
f 91/199/38 89/200/38 90/201/38 92/202/38
f 87/188/31 85/203/31 89/204/31 91/189/31
f 86/205/31 88/187/31 92/190/31 90/206/31
f 85/203/31 86/205/31 90/206/31 89/204/31
